/* XPM */
static char *magick[] = {
/* columns rows colors chars-per-pixel */
"48 48 32 1",
"  c None",
". c Gray100",
"X c #202020",
"o c Gray38",
"O c Gray3",
"+ c #a2a2a2",
"@ c #c3c3c3",
"# c Gray51",
"$ c #8a8a00",
"% c #414141",
"& c Gray89",
"* c #208a20",
"= c #00cfcf",
"- c #8a2020",
"; c #cf8600",
": c #ffc324",
"> c #cf2424",
", c Gray0",
"< c #30cf30",
"1 c Red",
"2 c Blue",
"3 c #00868a",
"4 c Gray0",
"5 c Gray0",
"6 c Gray0",
"7 c Gray0",
"8 c Gray0",
"9 c Gray0",
"0 c Gray0",
"q c Gray0",
"w c Gray0",
"e c Gray0",
/* pixels */
"                                                ",
"                                                ",
"                                                ",
"          .Xo....O                              ",
"         .Xo+...OO                     .@O..#O  ",
"        .Xo+...OOO                     .@O+..O  ",
"       .Xo+...OOOO       .$%...oO      ..$O..+O ",
"       ......+XOOO       &%....oO      ..@O+..O ",
"       .***=++XOOO      &$-...+OO      .&.@...%O",
"       .*+@+=+XOOO Oo..O.-....+OO      ...$@oo%O",
"       ;-%X%X%XOOOOo+.+O&.&.&$XOO      ...%XOOOO",
"       .=+=+=+XOOOO+..%O&$:;:;%OO      ...oXXXXO",
"  &O#..#-%-XXXXOOOO..+XO&$;%$;-OO      $&.%OOXOO",
" &Oo...#%XXX%XXOO%*+++%O$X%-XXOOO O... O..$@oo%O",
"&Oo+..*;-%X%-XXOO*%+++XO&;$-$$XOO%O...#O@.>XXXXO",
".&.&.+*.=+@+=+XOOOX%-%OO&$$;:$%OO%O...#Oo.@@%%oO",
",<****O#-%X%X%XOO*%+++XO$X-X-XOOO%O....%O.@$%%%O",
",,****O.***+=#XOOXX%%%OO.;$$$$%OO%.....%O.$@oo%O",
",,O%OOO.**+++#XOO*%+++XO&;$%$$XOO%%%%%%%O.@$%%%O",
",+,***O.*+@+=#XOOOX%%%OO&;$X$$%OO%%%%%%%O.@@@%oO",
",,,,,,,,,,,,,,,,,,,,,,,,,,,,,,,,O%##-##%O.@$%%%O",
",,1111111,...........,222222222,O%%%%%%%O.$@Xo%O",
",11111111,...........,222222222,O%#####%O.@$%%%O",
",11111111,...........,222222222,O%#XXX#%O.@@X%oO",
",11111111,...........,222222222,O%#####%O.@$%%%O",
",11111111,...........,222222222,O%%%%%%%O.$@@o%O",
",11111111,...........,222222222,O%X###X%O.@$X%%O",
",11111111,...........,222222222,O%%%%%%%O.@@%%oO",
",11111111,...........,222222222,O%%O%X%%O.@$@%%O",
",11111111,...........,222222222,O%X%X%%%O.$@@o%O",
",11111111,...........,222222222,O%%X%%%%O.@$%%%O",
",11111111,...........,222222222,O%X%X%%%O.@@%%oO",
",11111111,...........,222222222,O%%O%%%%O.@$%%%O",
",11111111,...........,222222222,O%%%%%%%O.$@oo%O",
",11111111,...........,222222222,O%-3#3-%O.@$%%%O",
",11111111,...........,222222222,O%%%%%%%O.-XXXXO",
",11111111,...........,222222222,O%##-##%O.@$%%%O",
",11111111,...........,222222222,O%#333#%O.%XOOOO",
",11111111,...........,222222222,O%-###-%O.%XXOOO",
",11111111,...........,222222222,O%%%%%%%O.oXOOOO",
",11111111,...........,222222222,O%#3-3#%O.@$%%%O",
",11111111,...........,222222222,O%%%%%%%O@$@oo%O",
",11111111,...........,222222222,O%%%%%%%O OOOOO ",
",11111111,...........,222222222, OOOOOOO        ",
",11111111,...........,222222222,                ",
",11111111,...........,222222222,                ",
",,,,,,,,,,,,,,,,,,,,,,,,,,,,,,,,                ",
",,,,,,,,,,,,,,,,,,,,,,,,,,,,,,,                 "
};
